PathFileType	4	(X/Y/Z)	./resultDataOpenSim/trcMotMarkerGrf/sub10/qtm-15-05.trc
DataRate	CameraRate	NumFrames	NumMarkers	Units	OrigDataRate	OrigDataStartFrame	OrigNumFrames
250.000000	250.000000	6	24	m	250.000000	314	501
Frame#	Time	L.Toe.Tip			R.Toe.Tip			L.Ankle.Lat			R.Ankle.Lat			L.Ankle.Med			R.Ankle.Med			L.Heel			R.Heel			L.Knee.Lat			R.Knee.Lat			L.Knee.Med			R.Knee.Med			L.Thigh.Upper			R.Thigh.Upper			L.ASIS			R.ASIS			V.Sacral			L.Acromium			R.Acromium			C7			L.Elbow			R.Elbow			L.Wrist.Lat			R.Wrist.Lat
		X1	Y1	Z1	X2	Y2	Z2	X3	Y3	Z3	X4	Y4	Z4	X5	Y5	Z5	X6	Y6	Z6	X7	Y7	Z7	X8	Y8	Z8	X9	Y9	Z9	X10	Y10	Z10	X11	Y11	Z11	X12	Y12	Z12	X13	Y13	Z13	X14	Y14	Z14	X15	Y15	Z15	X16	Y16	Z16	X17	Y17	Z17	X18	Y18	Z18	X19	Y19	Z19	X20	Y20	Z20	X21	Y21	Z21	X22	Y22	Z22	X23	Y23	Z23	X24	Y24	Z24

314	1.252	0.200265	0.069683192	-0.20171913	0.83020402	0.039223612	-0.040616711	0.20013044	0.21068076	-0.22039913	0.68616406	0.05230602	-0.0087908243	0.23500937	0.19889895	-0.14313781	0.70832733	0.07859098	-0.092224362	0.16148587	0.25613506	-0.16562928	0.6354318	0.028070352	-0.055159964	0.51188464	0.39964041	-0.24320179	0.76986987	0.43771545	0.031654061	0.55314572	0.33959129	-0.14209864	0.78097601	0.45289533	-0.097196992	0.56503622	0.75894983	-0.25213618	0.61883127	0.8150644	0.12611328	0.63676207	0.8650164	-0.20043349	0.67595828	0.89890255	0.048811495	0.46019908	0.90390621	-0.061399723	0.59604964	1.3779103	-0.19540711	0.55780131	1.368847	0.097919646	0.50501577	1.3894944	-0.057364341	0.50389009	1.1171496	-0.40832117	0.40127702	1.0981986	0.24994285	0.66351929	1.1198096	-0.60586561	0.4005872	1.1256482	0.50009656
315	1.256	0.21118432	0.072457896	-0.20304738	0.83013678	0.039228047	-0.040529711	0.21018986	0.21332007	-0.22191624	0.68608908	0.052233939	-0.0087597405	0.24471978	0.20185046	-0.14448796	0.70841357	0.078560731	-0.092170549	0.17102804	0.25859775	-0.16748244	0.63539291	0.028036787	-0.055235537	0.52133059	0.40056944	-0.24359635	0.77100147	0.43730506	0.032331822	0.56330331	0.34014345	-0.14263079	0.78288942	0.45251412	-0.096726716	0.57036131	0.75976981	-0.25215031	0.62256322	0.81578463	0.12612655	0.64206634	0.86593925	-0.20001414	0.67990629	0.90000322	0.049389614	0.46538843	0.90508058	-0.061601108	0.60123515	1.3785603	-0.19613359	0.56306187	1.3690344	0.0979399	0.50998617	1.3901808	-0.057610795	0.50850557	1.1158268	-0.40597957	0.40907096	1.0958755	0.24776353	0.66635763	1.1136437	-0.60453665	0.40843447	1.119034	0.498623
316	1.26	0.22235977	0.075065627	-0.20436557	0.83007202	0.039230216	-0.040444167	0.22047727	0.21580275	-0.22347213	0.68601161	0.052164938	-0.0087189136	0.25448886	0.20464623	-0.14575719	0.70849759	0.078541407	-0.092102208	0.18071808	0.26085929	-0.16937015	0.63535771	0.028007196	-0.05530568	0.53097654	0.401493	-0.24412731	0.77268071	0.43694608	0.032794071	0.57322805	0.34093022	-0.14318628	0.78471718	0.45213927	-0.096352012	0.57568021	0.76060697	-0.25217734	0.62638496	0.81649564	0.12612466	0.6473517	0.86705989	-0.19956296	0.68388027	0.90110451	0.049881093	0.47032339	0.90601347	-0.061531595	0.60635315	1.3793215	-0.19694579	0.56817325	1.3693072	0.097975871	0.51493201	1.3909718	-0.05791739	0.51255725	1.114691	-0.40378301	0.41669134	1.0936582	0.24550017	0.66912721	1.1075515	-0.60308453	0.41630388	1.1125063	0.49703353
317	1.264	0.23377542	0.077497664	-0.20570407	0.83001169	0.039231261	-0.04036077	0.23095897	0.21809332	-0.22504669	0.6859364	0.052094599	-0.0086681239	0.26441337	0.20725272	-0.14701904	0.70858238	0.078531812	-0.092015992	0.19047059	0.26293727	-0.17120335	0.63533023	0.027983029	-0.055370485	0.5415932	0.40196555	-0.24529901	0.77495838	0.43669038	0.033069269	0.58302328	0.34191145	-0.14377003	0.78645528	0.45177821	-0.09607548	0.58102551	0.76148776	-0.25222045	0.63030495	0.81718728	0.12611962	0.65262188	0.8683494	-0.19908584	0.68786978	0.90219961	0.050296312	0.47446844	0.90678469	-0.060978711	0.61137593	1.3801849	-0.19780443	0.57315759	1.3696719	0.098024525	0.51985474	1.3918737	-0.058274763	0.51628626	1.1136792	-0.40168634	0.42424229	1.0915526	0.24323456	0.67182878	1.1015539	-0.6015154	0.42423141	1.1060629	0.49533171
318	1.268	0.24540524	0.079750024	-0.20706187	0.8299531	0.039231599	-0.040276463	0.24158174	0.22016948	-0.2266164	0.68586816	0.052018984	-0.0086044412	0.27456643	0.20964054	-0.14832475	0.70866796	0.078531087	-0.091907658	0.2002741	0.26483184	-0.17298248	0.63530799	0.027966884	-0.055421666	0.55438491	0.40127095	-0.24795347	0.77746777	0.43655095	0.033288045	0.59287568	0.34301879	-0.14435594	0.78813906	0.45142798	-0.095822065	0.58641554	0.76244516	-0.25227869	0.63432328	0.81785671	0.12612258	0.65785603	0.86978294	-0.1986003	0.69186867	0.90328353	0.05063655	0.47723759	0.90754682	-0.059606579	0.61627393	1.3811411	-0.19866927	0.57803443	1.3701292	0.098082736	0.52475682	1.3928809	-0.058681199	0.51993118	1.112752	-0.39960644	0.4317527	1.0895773	0.24100764	0.67446058	1.095661	-0.59983023	0.43227784	1.0996959	0.49352453
319	1.272	0.25722013	0.081819149	-0.2084352	0.82989166	0.03923182	-0.040187567	0.25229299	0.2220185	-0.22816659	0.68580554	0.051938125	-0.0085238023	0.28487842	0.21177838	-0.14961674	0.70874978	0.078539078	-0.091776178	0.21017295	0.26653846	-0.17479919	0.63528585	0.027959471	-0.055453109	0.56984124	0.39918792	-0.25243448	0.77992108	0.43649045	0.033535272	0.60296791	0.34421263	-0.14494944	0.78979934	0.45107403	-0.09548544	0.59185484	0.76350498	-0.25234864	0.63843043	0.8185102	0.12614173	0.66303985	0.87133947	-0.19812566	0.69588184	0.90435116	0.05090968	0.47868869	0.90841553	-0.057377494	0.62105019	1.3821831	-0.1995225	0.58281735	1.3706768	0.098145817	0.52964177	1.3939862	-0.059133186	0.52360065	1.111912	-0.39749014	0.43920531	1.0877472	0.2388295	0.67701783	1.089872	-0.59802579	0.44048756	1.0934045	0.49161028
